# xmcd CD database file
#
# Track frame offsets:
#	150
#	9939
#	20883
#	33745
#	43739
#	61737
#	79117
#	94216
#	103646
#	111462
#	121390
#	134358
#	143716
#	155422
#	176248
#	187457
#	202825
#	233287
#	250796
#
# Disc length: 3577 seconds
#
# Revision: 0
# Processed by: cddbd v1.5.2PL0 Copyright (c) Steve Scherf et al.
# Submitted via: Feurio! 1.67 - http://www.feurio.com
#
DISCID=070df713
DTITLE=John Mayall and The Bluesbreakers With Eric Clapton - 1966 # John Mayall 
DTITLE=& The Bluesbreakers With Eric Clapton - Deluxe Edition [CD2]
DYEAR=1900
DGENRE=
TTITLE0=Crawling Up A Hill (BBC - April '65)
TTITLE1=Crocodile Walk (BBC - April '65)
TTITLE2=Bye Bye Bird (BBC - April '65)
TTITLE3=I'm Your Witchdoctor (Immediate 45 A - Oct '65)
TTITLE4=Telephone Blues (Immediate 45 B - Oct '65)
TTITLE5=Bernard Jenkins (Purdah 45 B - Rec- Oct '65)
TTITLE6=Lonely Years (Purdah 45 A - Rec- Oct '65)
TTITLE7=Cheatin' Woman (this ain't Clapton - Jeff Krivit )
TTITLE8=Nowhere To Run (this ain't Clapton - Jeff Krivit )
TTITLE9=I'm Your Witchdoctor (this ain't Clapton - Jeff Krivit )
TTITLE10=On Top Of The World (Blues Anytime Compilation - Rec Dec '65)
TTITLE11=Key To Love (BBC - March '66)
TTITLE12=On Top Of The World (BBC - March '66)
TTITLE13=They Call It Stormy Monday (Live at The Flamingo - Mar '66)
TTITLE14=Intro, Maudie (Live At The Flamingo - April '66)
TTITLE15=It Hurts To Be In Love (Live At The Flamingo - April '66)
TTITLE16=Have You Ever Loved A Woman (Live At The Flamingo - April '66)
TTITLE17=Bye Bye Bird (Live At The Flamingo - April '66)
TTITLE18=Hoochie Coochie Man (Live At The Flamingo - April '66)
EXTD=
EXTT0=
EXTT1=
EXTT2=
EXTT3=
EXTT4=
EXTT5=
EXTT6=
EXTT7=
EXTT8=
EXTT9=
EXTT10=
EXTT11=
EXTT12=
EXTT13=
EXTT14=
EXTT15=
EXTT16=
EXTT17=
EXTT18=
PLAYORDER=
